<svg width="344" height="54" viewBox="0 0 344 54" fill="none" xmlns="http://www.w3.org/2000/svg">
<g filter="url(#filter0_d_1166_399)">
<path d="M4 11.2H11.968C14.688 11.2 16.672 11.84 17.92 13.12C19.168 14.368 19.792 16.304 19.792 18.928V20.272C19.792 22 19.504 23.408 18.928 24.496C18.384 25.584 17.536 26.368 16.384 26.848V26.944C19.008 27.84 20.32 30.176 20.32 33.952V36.832C20.32 39.424 19.632 41.408 18.256 42.784C16.912 44.128 14.928 44.8 12.304 44.8H4V11.2ZM11.344 24.88C12.4 24.88 13.184 24.608 13.696 24.064C14.24 23.52 14.512 22.608 14.512 21.328V19.456C14.512 18.24 14.288 17.36 13.84 16.816C13.424 16.272 12.752 16 11.824 16H9.28V24.88H11.344ZM12.304 40C13.232 40 13.92 39.76 14.368 39.28C14.816 38.768 15.04 37.904 15.04 36.688V33.76C15.04 32.224 14.768 31.168 14.224 30.592C13.712 29.984 12.848 29.68 11.632 29.68H9.28V40H12.304Z" fill="black"/>
<path d="M31.0382 45.28C28.4462 45.28 26.4623 44.544 25.0863 43.072C23.7103 41.6 23.0222 39.52 23.0222 36.832V19.168C23.0222 16.48 23.7103 14.4 25.0863 12.928C26.4623 11.456 28.4462 10.72 31.0382 10.72C33.6303 10.72 35.6143 11.456 36.9902 12.928C38.3663 14.4 39.0542 16.48 39.0542 19.168V36.832C39.0542 39.52 38.3663 41.6 36.9902 43.072C35.6143 44.544 33.6303 45.28 31.0382 45.28ZM31.0382 40.48C32.8622 40.48 33.7743 39.376 33.7743 37.168V18.832C33.7743 16.624 32.8622 15.52 31.0382 15.52C29.2143 15.52 28.3022 16.624 28.3022 18.832V37.168C28.3022 39.376 29.2143 40.48 31.0382 40.48Z" fill="black"/>
<path d="M50.257 45.28C47.665 45.28 45.681 44.544 44.305 43.072C42.929 41.6 42.241 39.52 42.241 36.832V19.168C42.241 16.48 42.929 14.4 44.305 12.928C45.681 11.456 47.665 10.72 50.257 10.72C52.849 10.72 54.833 11.456 56.209 12.928C57.585 14.4 58.273 16.48 58.273 19.168V36.832C58.273 39.52 57.585 41.6 56.209 43.072C54.833 44.544 52.849 45.28 50.257 45.28ZM50.257 40.48C52.081 40.48 52.993 39.376 52.993 37.168V18.832C52.993 16.624 52.081 15.52 50.257 15.52C48.433 15.52 47.521 16.624 47.521 18.832V37.168C47.521 39.376 48.433 40.48 50.257 40.48Z" fill="black"/>
<path d="M61.8438 11.2H67.1237V25.36L73.8438 11.2H79.1237L72.8357 23.536L79.2197 44.8H73.6998L69.2357 29.824L67.1237 34.096V44.8H61.8438V11.2Z" fill="black"/>
<path d="M81.7188 11.2H86.9987V44.8H81.7188V11.2Z" fill="black"/>
<path d="M95.0811 16H89.5611V11.2H105.881V16H100.361V44.8H95.0811V16Z" fill="black"/>
<path d="M124.71 0H130.79L113.126 44.8H107.046L124.71 0Z" fill="black"/>
<path d="M140.647 0H146.727L129.063 44.8H122.983L140.647 0Z" fill="black"/>
<path d="M153.33 11.2H160.482L165.954 44.8H160.674L159.714 38.128V38.224H153.714L152.754 44.8H147.858L153.33 11.2ZM159.09 33.664L156.738 17.056H156.642L154.338 33.664H159.09Z" fill="black"/>
<path d="M168.516 11.2H176.58C179.204 11.2 181.172 11.904 182.484 13.312C183.796 14.72 184.452 16.784 184.452 19.504V36.496C184.452 39.216 183.796 41.28 182.484 42.688C181.172 44.096 179.204 44.8 176.58 44.8H168.516V11.2ZM176.484 40C177.348 40 178.004 39.744 178.452 39.232C178.932 38.72 179.172 37.888 179.172 36.736V19.264C179.172 18.112 178.932 17.28 178.452 16.768C178.004 16.256 177.348 16 176.484 16H173.796V40H176.484Z" fill="black"/>
<path d="M188.016 11.2H195.552L198.912 35.248H199.008L202.368 11.2H209.904V44.8H204.912V19.36H204.816L200.976 44.8H196.56L192.72 19.36H192.624V44.8H188.016V11.2Z" fill="black"/>
<path d="M213.844 11.2H219.124V44.8H213.844V11.2Z" fill="black"/>
<path d="M223.078 11.2H229.702L234.838 31.312H234.934V11.2H239.638V44.8H234.214L227.878 20.272H227.782V44.8H223.078V11.2Z" fill="black"/>
<path d="M251.25 11.2H259.026C261.65 11.2 263.618 11.904 264.93 13.312C266.242 14.72 266.898 16.784 266.898 19.504V22.816C266.898 25.536 266.242 27.6 264.93 29.008C263.618 30.416 261.65 31.12 259.026 31.12H256.53V44.8H251.25V11.2ZM259.026 26.32C259.89 26.32 260.53 26.08 260.946 25.6C261.394 25.12 261.618 24.304 261.618 23.152V19.168C261.618 18.016 261.394 17.2 260.946 16.72C260.53 16.24 259.89 16 259.026 16H256.53V26.32H259.026Z" fill="black"/>
<path d="M272.158 11.2H279.31L284.782 44.8H279.502L278.542 38.128V38.224H272.542L271.582 44.8H266.686L272.158 11.2ZM277.918 33.664L275.566 17.056H275.47L273.166 33.664H277.918Z" fill="black"/>
<path d="M287.344 11.2H293.968L299.104 31.312H299.2V11.2H303.904V44.8H298.48L292.144 20.272H292.048V44.8H287.344V11.2Z" fill="black"/>
<path d="M307.828 11.2H322.228V16H313.108V24.88H320.356V29.68H313.108V40H322.228V44.8H307.828V11.2Z" fill="black"/>
<path d="M325.266 11.2H330.546V40H339.234V44.8H325.266V11.2Z" fill="black"/>
</g>
<defs>
<filter id="filter0_d_1166_399" x="0" y="0" width="343.234" height="53.28" filterUnits="userSpaceOnUse" color-interpolation-filters="sRGB">
<feFlood flood-opacity="0" result="BackgroundImageFix"/>
<feColorMatrix in="SourceAlpha" type="matrix" values="0 0 0 0 0 0 0 0 0 0 0 0 0 0 0 0 0 0 127 0" result="hardAlpha"/>
<feOffset dy="4"/>
<feGaussianBlur stdDeviation="2"/>
<feComposite in2="hardAlpha" operator="out"/>
<feColorMatrix type="matrix" values="0 0 0 0 0 0 0 0 0 0 0 0 0 0 0 0 0 0 0.25 0"/>
<feBlend mode="normal" in2="BackgroundImageFix" result="effect1_dropShadow_1166_399"/>
<feBlend mode="normal" in="SourceGraphic" in2="effect1_dropShadow_1166_399" result="shape"/>
</filter>
</defs>
</svg>
